<svg width="24" height="24" viewBox="0 0 24 24" fill="none" xmlns="http://www.w3.org/2000/svg">
<path d="M21.4133 6.66663H2.58665C2.25424 6.66663 1.93545 6.79867 1.70041 7.03372C1.46536 7.26876 1.33331 7.58755 1.33331 7.91996V20.08C1.33331 20.4124 1.46536 20.7312 1.70041 20.9662C1.93545 21.2012 2.25424 21.3333 2.58665 21.3333H21.4133C21.7457 21.3333 22.0645 21.2012 22.2996 20.9662C22.5346 20.7312 22.6666 20.4124 22.6666 20.08V7.91996C22.6666 7.58755 22.5346 7.26876 22.2996 7.03372C22.0645 6.79867 21.7457 6.66663 21.4133 6.66663V6.66663ZM16.12 14.5533L9.60665 17.46C9.50523 17.5056 9.39401 17.525 9.28313 17.5167C9.17225 17.5083 9.06523 17.4723 8.9718 17.412C8.87838 17.3517 8.80151 17.269 8.74822 17.1714C8.69492 17.0739 8.66688 16.9645 8.66665 16.8533V11.04C8.66688 10.9288 8.69492 10.8194 8.74822 10.7218C8.80151 10.6242 8.87838 10.5415 8.9718 10.4812C9.06523 10.4209 9.17225 10.3849 9.28313 10.3766C9.39401 10.3682 9.50523 10.3877 9.60665 10.4333L16.12 13.3333C16.2383 13.3855 16.3389 13.4709 16.4095 13.5792C16.4801 13.6875 16.5177 13.814 16.5177 13.9433C16.5177 14.0726 16.4801 14.1991 16.4095 14.3074C16.3389 14.4157 16.2383 14.5011 16.12 14.5533V14.5533Z" fill="black"/>
<path d="M20.0933 2.00004C20.0933 1.82323 20.0231 1.65366 19.8981 1.52864C19.773 1.40361 19.6035 1.33337 19.4267 1.33337H4.75999C4.58318 1.33337 4.41361 1.40361 4.28859 1.52864C4.16356 1.65366 4.09332 1.82323 4.09332 2.00004V2.00004V2.66671H20.0933V2.00004Z" fill="black"/>
<path d="M21.4133 4.66667C21.4133 4.48986 21.3431 4.32029 21.218 4.19526C21.093 4.07024 20.9235 4 20.7466 4H3.41331C3.2365 4 3.06693 4.07024 2.94191 4.19526C2.81688 4.32029 2.74664 4.48986 2.74664 4.66667V5.33333H21.4133V4.66667Z" fill="black"/>
</svg>
